<svg width="24" height="24" viewBox="0 0 24 24" fill="none" xmlns="http://www.w3.org/2000/svg">
<path d="M17.4399 15.3695C17.2499 15.3695 17.0599 15.2995 16.9099 15.1495C16.6199 14.8595 16.6199 14.3795 16.9099 14.0895L18.9399 12.0595L16.9099 10.0295C16.6199 9.73945 16.6199 9.25945 16.9099 8.96945C17.1999 8.67945 17.6799 8.67945 17.9699 8.96945L20.5299 11.5295C20.8199 11.8195 20.8199 12.2995 20.5299 12.5895L17.9699 15.1495C17.8199 15.2995 17.6299 15.3695 17.4399 15.3695Z" fill="#023E8A"/>
<path d="M19.93 12.8105H9.76001C9.35001 12.8105 9.01001 12.4705 9.01001 12.0605C9.01001 11.6505 9.35001 11.3105 9.76001 11.3105H19.93C20.34 11.3105 20.68 11.6505 20.68 12.0605C20.68 12.4705 20.34 12.8105 19.93 12.8105Z" fill="#023E8A"/>
<path d="M11.76 20.75C6.61001 20.75 3.01001 17.15 3.01001 12C3.01001 6.85 6.61001 3.25 11.76 3.25C12.17 3.25 12.51 3.59 12.51 4C12.51 4.41 12.17 4.75 11.76 4.75C7.49001 4.75 4.51001 7.73 4.51001 12C4.51001 16.27 7.49001 19.25 11.76 19.25C12.17 19.25 12.51 19.59 12.51 20C12.51 20.41 12.17 20.75 11.76 20.75Z" fill="#023E8A"/>
</svg>
