<svg width="23" height="22" viewBox="0 0 23 22" fill="none" xmlns="http://www.w3.org/2000/svg">
<path d="M11.685 18.8183C9.54921 18.8183 7.41338 18.4791 5.38754 17.8008C4.61754 17.5349 4.03088 16.9941 3.77421 16.2883C3.50838 15.5824 3.60004 14.8033 4.02171 14.1066L5.07588 12.3558C5.29588 11.9891 5.49754 11.2558 5.49754 10.8249V8.17578C5.49754 4.76578 8.27504 1.98828 11.685 1.98828C15.095 1.98828 17.8725 4.76578 17.8725 8.17578V10.8249C17.8725 11.2466 18.0742 11.9891 18.2942 12.3649L19.3392 14.1066C19.7334 14.7666 19.8067 15.5641 19.5409 16.2883C19.275 17.0124 18.6975 17.5624 17.9734 17.8008C15.9567 18.4791 13.8209 18.8183 11.685 18.8183ZM11.685 3.36328C9.03588 3.36328 6.87254 5.51745 6.87254 8.17578V10.8249C6.87254 11.4941 6.59754 12.4841 6.25838 13.0616L5.20421 14.8124C5.00254 15.1516 4.94754 15.5091 5.06671 15.8116C5.17671 16.1233 5.45171 16.3616 5.82754 16.4899C9.65921 17.7733 13.72 17.7733 17.5517 16.4899C17.8817 16.3799 18.1384 16.1324 18.2575 15.8024C18.3767 15.4724 18.3492 15.1149 18.1659 14.8124L17.1117 13.0616C16.7634 12.4658 16.4975 11.4849 16.4975 10.8158V8.17578C16.4975 5.51745 14.3434 3.36328 11.685 3.36328Z" fill="#023E8A"/>
<path d="M13.39 3.61203C13.3258 3.61203 13.2616 3.60286 13.1975 3.58453C12.9316 3.5112 12.675 3.4562 12.4275 3.41953C11.6483 3.3187 10.8966 3.3737 10.1908 3.58453C9.93415 3.66703 9.65915 3.58453 9.48498 3.39203C9.31082 3.19953 9.25582 2.92453 9.35665 2.67703C9.73248 1.71453 10.6491 1.08203 11.6941 1.08203C12.7391 1.08203 13.6558 1.70536 14.0316 2.67703C14.1233 2.92453 14.0775 3.19953 13.9033 3.39203C13.7658 3.5387 13.5733 3.61203 13.39 3.61203Z" fill="#023E8A"/>
<path d="M11.6848 20.9102C10.7773 20.9102 9.89731 20.5435 9.25565 19.9018C8.61398 19.2602 8.24731 18.3802 8.24731 17.4727H9.62231C9.62231 18.0135 9.84231 18.5452 10.2273 18.9302C10.6123 19.3152 11.144 19.5352 11.6848 19.5352C12.8215 19.5352 13.7473 18.6093 13.7473 17.4727H15.1223C15.1223 19.3702 13.5823 20.9102 11.6848 20.9102Z" fill="#023E8A"/>
<circle cx="16.6664" cy="5.33268" r="2.66667" fill="#FF707A"/>
</svg>
