<svg width="24" height="63" viewBox="0 0 24 63" fill="none" xmlns="http://www.w3.org/2000/svg">
<path d="M5.7865 60.1842C5.7865 61.7625 6.76954 62.7442 8.3465 62.7442C9.9273 62.7442 10.9065 61.7625 10.9065 60.1842V35.8642H13.4665V60.1842C13.4665 61.7599 14.4483 62.7442 16.0265 62.7442C17.6047 62.7442 18.5865 61.7625 18.5865 60.1842V19.2242H19.8665V34.3461C19.8665 37.4117 23.7142 37.4117 23.7065 34.3461V18.7903C23.7065 15.4034 21.2668 12.8242 17.3065 12.8242H7.0665C3.4569 12.8242 0.666504 15.0245 0.666504 18.6956V34.5842C0.666504 37.1442 4.5065 37.1442 4.5065 34.5842V19.2242H5.7865V60.1842Z" fill="#0077B6"/>
<path d="M11.9465 11.226C14.8626 11.226 17.2265 8.86208 17.2265 5.94602C17.2265 3.02995 14.8626 0.666016 11.9465 0.666016C9.03044 0.666016 6.6665 3.02995 6.6665 5.94602C6.6665 8.86208 9.03044 11.226 11.9465 11.226Z" fill="#0077B6"/>
</svg>
