<svg width="106" height="33" viewBox="0 0 106 33" fill="none" xmlns="http://www.w3.org/2000/svg">
<path d="M36.7573 30.31C37.2324 29.8349 38.0024 29.8349 38.4611 30.31C38.9362 30.7851 38.9362 31.5551 38.4611 32.0138C37.986 32.4889 37.216 32.4889 36.7573 32.0138C36.2822 31.5387 36.2822 30.7851 36.7573 30.31ZM34.0213 29.5564C34.6766 29.5564 35.2009 30.0806 35.2009 30.736C35.2009 31.3913 34.6766 31.9155 34.0213 31.9155C33.366 31.9155 32.8418 31.3913 32.8418 30.736C32.8418 30.0806 33.366 29.5564 34.0213 29.5564ZM30.6464 28.3113C30.0075 28.3113 29.4996 28.8192 29.4996 29.4581C29.4996 30.097 30.0075 30.6049 30.6464 30.6049C31.2854 30.6049 31.7932 30.097 31.7932 29.4581C31.7932 28.8192 31.269 28.3113 30.6464 28.3113ZM26.8784 26.6075C27.3043 26.1815 28.0088 26.1815 28.4348 26.6075C28.8607 27.0334 28.8607 27.7379 28.4348 28.1638C28.0088 28.5898 27.3043 28.5898 26.8784 28.1638C26.4524 27.7379 26.4524 27.0334 26.8784 26.6075ZM25.2565 23.6094C25.8463 23.6094 26.3214 24.0845 26.3214 24.6743C26.3214 25.2641 25.8463 25.7392 25.2565 25.7392C24.6667 25.7392 24.1916 25.2641 24.1916 24.6743C24.1916 24.0845 24.6667 23.6094 25.2565 23.6094ZM23.3397 20.4639C23.8967 20.3328 24.4537 20.6769 24.5848 21.2339C24.7158 21.7909 24.3718 22.3479 23.8148 22.479C23.2578 22.61 22.7007 22.266 22.5697 21.709C22.4386 21.152 22.7827 20.5949 23.3397 20.4639ZM22.7171 16.9579C23.2741 16.9579 23.7165 17.4003 23.7165 17.9573C23.7165 18.5143 23.2741 18.9567 22.7171 18.9567C22.1601 18.9567 21.7178 18.5143 21.7178 17.9573C21.7178 17.4003 22.1601 16.9579 22.7171 16.9579ZM22.7171 15.3197C23.2578 15.3197 23.7001 14.8773 23.7001 14.3367C23.7001 13.796 23.2578 13.3537 22.7171 13.3537C22.1765 13.3537 21.7342 13.796 21.7342 14.3367C21.7178 14.8773 22.1765 15.3197 22.7171 15.3197ZM23.569 11.781C24.0933 11.781 24.5192 11.355 24.5192 10.8307C24.5192 10.3065 24.0933 9.88054 23.569 9.88054C23.0448 9.88054 22.6188 10.3065 22.6188 10.8307C22.6352 11.3386 23.0448 11.781 23.569 11.781ZM24.6175 6.98077C24.978 6.62035 25.5514 6.62035 25.9118 6.98077C26.2722 7.34119 26.2722 7.91459 25.9118 8.27502C25.5514 8.63544 24.978 8.63544 24.6175 8.27502C24.2571 7.91459 24.2571 7.32481 24.6175 6.98077ZM27.6648 4.01547C28.1562 4.01547 28.5658 4.40866 28.5658 4.91653C28.5658 5.40801 28.1726 5.81758 27.6648 5.81758C27.1733 5.81758 26.7637 5.4244 26.7637 4.91653C26.7637 4.40866 27.1733 4.01547 27.6648 4.01547ZM30.4499 2.01676C30.9086 1.90208 31.3673 2.19697 31.482 2.65569C31.5967 3.11441 31.3018 3.57313 30.843 3.68781C30.3843 3.80249 29.9256 3.5076 29.8109 3.04888C29.6962 2.59016 29.9747 2.13144 30.4499 2.01676ZM34.0213 2.37718C34.48 2.37718 34.8405 2.01676 34.8405 1.55804C34.8405 1.09932 34.48 0.738894 34.0213 0.738894C33.5626 0.738894 33.2022 1.09932 33.2022 1.55804C33.2022 2.01676 33.5626 2.37718 34.0213 2.37718ZM36.7573 26.5419C37.2324 26.0668 38.0024 26.0668 38.4611 26.5419C38.9362 27.017 38.9362 27.787 38.4611 28.2458C37.986 28.7209 37.216 28.7209 36.7573 28.2458C36.2822 27.787 36.2822 27.017 36.7573 26.5419ZM34.1524 25.69C33.4971 25.69 32.9892 26.2143 32.9892 26.8532C32.9892 27.5085 33.5134 28.0164 34.1524 28.0164C34.7913 28.0164 35.3156 27.4921 35.3156 26.8532C35.2992 26.2143 34.7749 25.69 34.1524 25.69ZM29.9747 24.8217C30.2041 24.2483 30.8758 23.9698 31.4328 24.2156C31.9898 24.4613 32.2847 25.1166 32.039 25.6736C31.8096 26.247 31.1379 26.5256 30.5809 26.2798C30.0075 26.0504 29.729 25.3951 29.9747 24.8217ZM28.5167 21.6762C27.9269 21.6762 27.4354 22.1677 27.4354 22.7575C27.4354 23.3473 27.9269 23.8388 28.5167 23.8388C29.1065 23.8388 29.5979 23.3473 29.5979 22.7575C29.5816 22.1677 29.0901 21.6762 28.5167 21.6762ZM26.9111 20.6605C27.4845 20.6605 27.9433 20.1854 27.9433 19.6284C27.9433 19.0713 27.4682 18.5962 26.9111 18.5962C26.3541 18.5962 25.879 19.0713 25.879 19.6284C25.879 20.1854 26.3377 20.6605 26.9111 20.6605ZM26.1412 15.1722C26.6818 15.0411 27.2224 15.3852 27.3371 15.9094C27.4682 16.4501 27.1241 16.9907 26.5999 17.1054C26.0592 17.2365 25.5186 16.8924 25.4039 16.3682C25.2565 15.8275 25.6005 15.2869 26.1412 15.1722ZM26.6982 11.7482C27.206 11.6335 27.7139 11.9448 27.845 12.4527C27.976 12.9605 27.6484 13.4684 27.1405 13.5995C26.6326 13.7305 26.1248 13.4029 25.9937 12.895C25.8626 12.3707 26.1739 11.8629 26.6982 11.7482ZM27.5992 9.5365C27.5992 10.0444 28.0088 10.4539 28.5167 10.4539C29.0245 10.4539 29.4341 10.0444 29.4341 9.5365C29.4341 9.02863 29.0245 8.61906 28.5167 8.61906C28.0088 8.61906 27.5992 9.02863 27.5992 9.5365ZM30.1386 7.0463C30.1386 7.52141 30.5318 7.9146 31.0069 7.9146C31.482 7.9146 31.8752 7.52141 31.8752 7.0463C31.8752 6.5712 31.482 6.17801 31.0069 6.17801C30.5318 6.17801 30.1386 6.55481 30.1386 7.0463ZM34.1524 4.60525C33.6937 4.60525 33.3332 4.96568 33.3332 5.4244C33.3332 5.88312 33.6937 6.24354 34.1524 6.24354C34.6111 6.24354 34.9715 5.88312 34.9715 5.4244C34.9715 4.96568 34.5947 4.60525 34.1524 4.60525ZM36.7573 22.7739C37.2324 22.2988 38.0024 22.2988 38.4611 22.7739C38.9362 23.249 38.9362 24.019 38.4611 24.4777C37.986 24.9528 37.216 24.9528 36.7573 24.4777C36.2985 24.0026 36.2985 23.249 36.7573 22.7739ZM34.1524 21.5943C33.4971 21.5943 32.9728 22.1186 32.9728 22.7739C32.9728 23.4292 33.4971 23.9534 34.1524 23.9534C34.8077 23.9534 35.3319 23.4292 35.3319 22.7739C35.3156 22.1186 34.7913 21.5943 34.1524 21.5943ZM31.4656 19.2843C30.8594 19.2843 30.3679 19.7758 30.3679 20.382C30.3679 20.9881 30.8594 21.4796 31.4656 21.4796C32.0718 21.4796 32.5632 20.9881 32.5632 20.382C32.5632 19.7758 32.0718 19.2843 31.4656 19.2843ZM30.2041 18.0884C30.7775 18.0884 31.2362 17.6133 31.2362 17.0562C31.2362 16.4828 30.7611 16.0241 30.2041 16.0241C29.6471 16.0241 29.172 16.4992 29.172 17.0562C29.1556 17.6296 29.6307 18.0884 30.2041 18.0884ZM30.6301 14.4514C31.1543 14.4514 31.5967 14.009 31.5967 13.4848C31.5967 12.9605 31.1543 12.5182 30.6301 12.5182C30.1058 12.5182 29.6635 12.9605 29.6635 13.4848C29.6635 14.0418 30.0894 14.4514 30.6301 14.4514ZM32.6615 9.65118C33.153 9.65118 33.5626 10.0444 33.5626 10.5522C33.5626 11.0437 33.1694 11.4533 32.6615 11.4533C32.1701 11.4533 31.7605 11.0601 31.7605 10.5522C31.7605 10.0608 32.1537 9.65118 32.6615 9.65118ZM35.8234 8.07843C35.3647 8.07843 35.0207 8.43885 35.0207 8.88119C35.0207 9.32352 35.3811 9.68395 35.8234 9.68395C36.2658 9.68395 36.6262 9.32352 36.6262 8.88119C36.6262 8.43885 36.2658 8.07843 35.8234 8.07843ZM37.6092 1.91846C38.0515 1.91846 38.3955 1.57442 38.3955 1.13208C38.3955 0.689744 38.0515 0.345703 37.6092 0.345703C37.1668 0.345703 36.8228 0.689744 36.8228 1.13208C36.8228 1.57442 37.1832 1.91846 37.6092 1.91846ZM41.2134 2.32803C41.6394 2.32803 41.9834 1.98399 41.9834 1.55804C41.9834 1.13208 41.6394 0.788043 41.2134 0.788043C40.7874 0.788043 40.4434 1.13208 40.4434 1.55804C40.4434 1.98399 40.7874 2.32803 41.2134 2.32803ZM44.5883 3.57313C44.9979 3.57313 45.3255 3.24548 45.3255 2.8359C45.3255 2.42633 44.9979 2.09867 44.5883 2.09867C44.1787 2.09867 43.851 2.42633 43.851 2.8359C43.851 3.24548 44.1951 3.57313 44.5883 3.57313ZM47.57 5.58823C47.9632 5.58823 48.258 5.27695 48.258 4.90015C48.258 4.50696 47.9468 4.21206 47.57 4.21206C47.1768 4.21206 46.8819 4.52334 46.8819 4.90015C46.8819 5.29334 47.2095 5.58823 47.57 5.58823ZM49.9782 6.94801C49.6178 6.94801 49.3065 7.2429 49.3065 7.6197C49.3065 7.99651 49.6014 8.2914 49.9782 8.2914C50.3551 8.2914 50.6499 7.99651 50.6499 7.6197C50.6499 7.2429 50.3387 6.94801 49.9782 6.94801ZM51.6493 11.4533C51.9933 11.4533 52.2882 11.1748 52.2882 10.8144C52.2882 10.4539 52.0097 10.1754 51.6493 10.1754C51.2889 10.1754 51.0104 10.4539 51.0104 10.8144C51.0268 11.1584 51.3216 11.4533 51.6493 11.4533ZM51.9114 14.3367C51.9114 14.6643 52.1736 14.9265 52.5012 14.9265C52.8289 14.9265 53.091 14.6643 53.091 14.3367C53.091 14.009 52.8289 13.7469 52.5012 13.7469C52.1736 13.7469 51.9114 14.009 51.9114 14.3367ZM52.534 17.3839C52.8453 17.3839 53.1074 17.646 53.1074 17.9573C53.1074 18.2686 52.8453 18.5307 52.534 18.5307C52.2227 18.5307 51.9606 18.2686 51.9606 17.9573C51.9606 17.646 52.2063 17.3839 52.534 17.3839ZM51.6493 20.9226C51.3544 20.9226 51.1087 21.1683 51.1087 21.4632C51.1087 21.7581 51.3544 22.0039 51.6493 22.0039C51.9442 22.0039 52.1899 21.7581 52.1899 21.4632C52.1899 21.1683 51.977 20.9226 51.6493 20.9226ZM49.9782 24.1664C49.6997 24.1664 49.4704 24.3958 49.4704 24.6743C49.4704 24.9528 49.6997 25.1822 49.9782 25.1822C50.2568 25.1822 50.4861 24.9528 50.4861 24.6743C50.4861 24.3958 50.2568 24.1664 49.9782 24.1664ZM47.57 26.9024C47.8485 26.9024 48.0615 27.1153 48.0615 27.3938C48.0615 27.6724 47.8485 27.8853 47.57 27.8853C47.2915 27.8853 47.0785 27.6724 47.0785 27.3938C47.0785 27.1153 47.3078 26.9024 47.57 26.9024ZM44.5883 28.983C44.3425 28.983 44.1296 29.196 44.1296 29.4417C44.1296 29.6874 44.3425 29.9004 44.5883 29.9004C44.834 29.9004 45.047 29.6874 45.047 29.4417C45.047 29.196 44.8504 28.983 44.5883 28.983ZM41.2134 30.31C41.4428 30.31 41.6394 30.4902 41.6394 30.736C41.6394 30.9653 41.4591 31.1619 41.2134 31.1619C40.9677 31.1619 40.7874 30.9817 40.7874 30.736C40.7874 30.4902 40.984 30.31 41.2134 30.31ZM37.6092 4.09738C37.1668 4.09738 36.8064 4.44143 36.8064 4.90015C36.8064 5.35887 37.1504 5.70291 37.6092 5.70291C38.0679 5.70291 38.4119 5.35887 38.4119 4.90015C38.4119 4.44143 38.0515 4.09738 37.6092 4.09738ZM41.0987 4.67079C40.6728 4.67079 40.3451 4.99844 40.3451 5.4244C40.3451 5.85035 40.6728 6.17801 41.0987 6.17801C41.5247 6.17801 41.8523 5.85035 41.8523 5.4244C41.8523 5.03121 41.5247 4.67079 41.0987 4.67079ZM44.2442 7.76715C44.6374 7.76715 44.9651 7.45587 44.9651 7.0463C44.9651 6.63673 44.6538 6.32546 44.2442 6.32546C43.8347 6.32546 43.5234 6.63673 43.5234 7.0463C43.5234 7.43949 43.8347 7.76715 44.2442 7.76715ZM46.7344 8.8648C47.0949 8.8648 47.4061 9.1597 47.4061 9.5365C47.4061 9.89692 47.1112 10.2082 46.7344 10.2082C46.3576 10.2082 46.0627 9.91331 46.0627 9.5365C46.0627 9.1597 46.3576 8.8648 46.7344 8.8648ZM47.701 12.6656C47.701 13.0097 47.9795 13.3046 48.34 13.3046C48.7004 13.3046 48.9789 13.0261 48.9789 12.6656C48.9789 12.3052 48.7004 12.0267 48.34 12.0267C47.9795 12.0431 47.701 12.3216 47.701 12.6656ZM48.8642 15.5654C48.5366 15.5654 48.2744 15.8275 48.2744 16.1552C48.2744 16.4828 48.5366 16.745 48.8642 16.745C49.1919 16.745 49.454 16.4828 49.454 16.1552C49.454 15.8275 49.2083 15.5654 48.8642 15.5654ZM48.3236 19.0877C48.6185 19.0877 48.8642 19.3335 48.8642 19.6284C48.8642 19.9233 48.6185 20.169 48.3236 20.169C48.0287 20.169 47.7829 19.9233 47.7829 19.6284C47.7829 19.3335 48.0287 19.0877 48.3236 19.0877ZM46.7181 22.266C46.4395 22.266 46.2102 22.4954 46.2102 22.7739C46.2102 23.0524 46.4395 23.2817 46.7181 23.2817C46.9966 23.2817 47.2259 23.0524 47.2259 22.7739C47.2259 22.479 47.0129 22.266 46.7181 22.266ZM44.703 25.2477C44.703 24.9856 44.49 24.7726 44.2279 24.7726C43.9657 24.7726 43.7528 24.9856 43.7528 25.2477C43.7528 25.5098 43.9657 25.7228 44.2279 25.7228C44.49 25.7228 44.703 25.5262 44.703 25.2477ZM41.0823 26.4109C41.3281 26.4109 41.5247 26.6075 41.5247 26.8532C41.5247 27.099 41.3281 27.2955 41.0823 27.2955C40.8366 27.2955 40.64 27.099 40.64 26.8532C40.64 26.6075 40.8366 26.4109 41.0823 26.4109ZM39.4113 8.11119C39.8372 8.11119 40.1813 8.45523 40.1813 8.88119C40.1813 9.30714 39.8372 9.65118 39.4113 9.65118C38.9853 9.65118 38.6413 9.30714 38.6413 8.88119C38.6413 8.45523 38.9853 8.11119 39.4113 8.11119ZM42.5732 9.84778C42.18 9.84778 41.8687 10.1591 41.8687 10.5522C41.8687 10.9454 42.18 11.2567 42.5732 11.2567C42.9664 11.2567 43.2776 10.9454 43.2776 10.5522C43.2776 10.1591 42.9664 9.84778 42.5732 9.84778ZM44.6047 12.8458C44.2606 12.8458 43.9657 13.1244 43.9657 13.4848C43.9657 13.8452 44.2442 14.1237 44.6047 14.1237C44.9651 14.1237 45.2436 13.8452 45.2436 13.4848C45.2436 13.1244 44.9651 12.8458 44.6047 12.8458ZM45.047 16.4337C44.7193 16.4337 44.4572 16.6958 44.4572 17.0235C44.4572 17.3511 44.7193 17.6133 45.047 17.6133C45.3747 17.6133 45.6368 17.3511 45.6368 17.0235C45.6368 16.6958 45.3583 16.4337 45.047 16.4337ZM44.3098 20.382C44.3098 20.0871 44.064 19.8413 43.7855 19.8413C43.507 19.8413 43.2613 20.0871 43.2613 20.382C43.2613 20.6769 43.507 20.9062 43.7855 20.9062C44.064 20.9062 44.3098 20.6769 44.3098 20.382ZM41.0987 22.2988C41.3609 22.2988 41.5738 22.5117 41.5738 22.7739C41.5738 23.036 41.3609 23.249 41.0987 23.249C40.8366 23.249 40.6236 23.036 40.6236 22.7739C40.6236 22.5117 40.8366 22.2988 41.0987 22.2988Z" fill="#38CFBB"/>
<rect x="21.7178" y="11.9766" width="38.6636" height="8.68293" fill="white"/>
<path d="M6.36738 8.28394C7.94013 8.28394 9.25076 8.83549 10.2993 9.93861C11.3587 11.0417 11.8884 12.4015 11.8884 14.0179C11.8884 15.6344 11.3587 16.9942 10.2993 18.0973C9.25076 19.2004 7.94013 19.752 6.36738 19.752H1.81293V8.28394H6.36738ZM6.36738 17.5894C7.36127 17.5894 8.16949 17.2618 8.79204 16.6064C9.41459 15.9402 9.72587 15.0774 9.72587 14.0179C9.72587 12.9585 9.41459 12.1011 8.79204 11.4458C8.16949 10.7796 7.36127 10.4465 6.36738 10.4465H4.07377V17.5894H6.36738ZM20.3729 18.7362C19.532 19.5663 18.5053 19.9813 17.293 19.9813C16.0806 19.9813 15.054 19.5663 14.213 18.7362C13.3829 17.8952 12.9679 16.8686 12.9679 15.6562C12.9679 14.4439 13.3829 13.4227 14.213 12.5926C15.054 11.7516 16.0806 11.3312 17.293 11.3312C18.5053 11.3312 19.532 11.7516 20.3729 12.5926C21.2139 13.4227 21.6344 14.4439 21.6344 15.6562C21.6344 16.8686 21.2139 17.8952 20.3729 18.7362ZM15.7038 17.2781C16.1298 17.7041 16.6595 17.9171 17.293 17.9171C17.9264 17.9171 18.4561 17.7041 18.8821 17.2781C19.3081 16.8522 19.521 16.3115 19.521 15.6562C19.521 15.0009 19.3081 14.4603 18.8821 14.0343C18.4561 13.6084 17.9264 13.3954 17.293 13.3954C16.6595 13.3954 16.1298 13.6084 15.7038 14.0343C15.2888 14.4603 15.0813 15.0009 15.0813 15.6562C15.0813 16.3115 15.2888 16.8522 15.7038 17.2781ZM27.0203 19.9813C25.7861 19.9813 24.754 19.5663 23.9239 18.7362C23.1048 17.9061 22.6952 16.8795 22.6952 15.6562C22.6952 14.433 23.1048 13.4063 23.9239 12.5763C24.754 11.7462 25.7861 11.3312 27.0203 11.3312C27.8176 11.3312 28.5439 11.5223 29.1992 11.9046C29.8545 12.2868 30.3515 12.8002 30.6901 13.4445L28.8716 14.5094C28.7077 14.1709 28.4565 13.9033 28.118 13.7067C27.7903 13.5101 27.419 13.4118 27.0039 13.4118C26.3704 13.4118 25.8462 13.6248 25.4312 14.0507C25.0161 14.4657 24.8086 15.0009 24.8086 15.6562C24.8086 16.3006 25.0161 16.8358 25.4312 17.2618C25.8462 17.6768 26.3704 17.8843 27.0039 17.8843C27.4299 17.8843 27.8067 17.7915 28.1343 17.6058C28.4729 17.4092 28.7241 17.1416 28.8879 16.803L30.7228 17.8515C30.3624 18.4959 29.8545 19.0147 29.1992 19.4079C28.5439 19.7902 27.8176 19.9813 27.0203 19.9813ZM46.3051 12.9694C46.5017 12.4452 46.8239 12.052 47.2717 11.7899C47.7304 11.5277 48.2383 11.3967 48.7953 11.3967V13.7558C48.1509 13.6794 47.5721 13.8104 47.0587 14.149C46.5563 14.4876 46.3051 15.0501 46.3051 15.8364V19.752H44.1917V11.5605H46.3051V12.9694ZM56.002 11.5605H58.0662V19.3588C58.0662 20.6257 57.6458 21.5923 56.8048 22.2585C55.9747 22.9248 54.9699 23.2579 53.7903 23.2579C52.9056 23.2579 52.1247 23.0886 51.4476 22.75C50.7813 22.4114 50.268 21.9145 49.9076 21.2592L51.7097 20.2271C52.1247 20.9916 52.8401 21.3739 53.8558 21.3739C54.5221 21.3739 55.0463 21.1991 55.4286 20.8496C55.8109 20.5001 56.002 20.0032 56.002 19.3588V18.4741C55.3795 19.3042 54.5057 19.7192 53.3807 19.7192C52.223 19.7192 51.251 19.3151 50.4646 18.5069C49.6891 17.6877 49.3014 16.6938 49.3014 15.5252C49.3014 14.3674 49.6946 13.379 50.481 12.5599C51.2673 11.7407 52.2339 11.3312 53.3807 11.3312C54.5057 11.3312 55.3795 11.7462 56.002 12.5763V11.5605ZM52.0537 17.1471C52.4906 17.5621 53.0422 17.7696 53.7084 17.7696C54.3746 17.7696 54.9207 17.5621 55.3467 17.1471C55.7836 16.7211 56.002 16.1805 56.002 15.5252C56.002 14.8808 55.7836 14.3511 55.3467 13.936C54.9207 13.5101 54.3746 13.2971 53.7084 13.2971C53.0422 13.2971 52.4906 13.5101 52.0537 13.936C51.6278 14.3511 51.4148 14.8808 51.4148 15.5252C51.4148 16.1805 51.6278 16.7211 52.0537 17.1471ZM66.2082 11.5605H68.3215V19.752H66.2082V18.7854C65.5747 19.5827 64.6845 19.9813 63.5377 19.9813C62.4456 19.9813 61.5063 19.5663 60.7199 18.7362C59.9444 17.8952 59.5567 16.8686 59.5567 15.6562C59.5567 14.4439 59.9444 13.4227 60.7199 12.5926C61.5063 11.7516 62.4456 11.3312 63.5377 11.3312C64.6845 11.3312 65.5747 11.7298 66.2082 12.5271V11.5605ZM62.309 17.3273C62.735 17.7532 63.2756 17.9662 63.9309 17.9662C64.5862 17.9662 65.1269 17.7532 65.5528 17.3273C65.9897 16.8904 66.2082 16.3334 66.2082 15.6562C66.2082 14.9791 65.9897 14.4275 65.5528 14.0016C65.1269 13.5647 64.5862 13.3462 63.9309 13.3462C63.2756 13.3462 62.735 13.5647 62.309 14.0016C61.8831 14.4275 61.6701 14.9791 61.6701 15.6562C61.6701 16.3334 61.8831 16.8904 62.309 17.3273ZM74.7924 11.3312C75.688 11.3312 76.4252 11.6315 77.0041 12.2322C77.5939 12.8329 77.8888 13.663 77.8888 14.7224V19.752H75.7754V14.9845C75.7754 14.4384 75.6279 14.0234 75.333 13.7394C75.0381 13.4445 74.645 13.2971 74.1535 13.2971C73.6074 13.2971 73.1705 13.4664 72.8428 13.805C72.5152 14.1435 72.3514 14.6514 72.3514 15.3286V19.752H70.238V11.5605H72.3514V12.478C72.8647 11.7134 73.6784 11.3312 74.7924 11.3312ZM80.7418 10.5775C80.3923 10.5775 80.0865 10.4519 79.8244 10.2007C79.5732 9.93861 79.4476 9.63279 79.4476 9.28329C79.4476 8.93379 79.5732 8.62798 79.8244 8.36585C80.0865 8.10372 80.3923 7.97266 80.7418 7.97266C81.1022 7.97266 81.4081 8.10372 81.6593 8.36585C81.9214 8.62798 82.0524 8.93379 82.0524 9.28329C82.0524 9.63279 81.9214 9.93861 81.6593 10.2007C81.4081 10.4519 81.1022 10.5775 80.7418 10.5775ZM79.6933 19.752V11.5605H81.8067V19.752H79.6933ZM86.3131 17.7696H89.9501V19.752H83.4789V18.343L86.9357 13.5428H83.6427V11.5605H89.7863V12.9694L86.3131 17.7696ZM92.7743 16.5245C93.0582 17.5512 93.8282 18.0645 95.0843 18.0645C95.8925 18.0645 96.5041 17.7915 96.9191 17.2454L98.623 18.2283C97.8147 19.397 96.6243 19.9813 95.0515 19.9813C93.6972 19.9813 92.6104 19.5717 91.7913 18.7526C90.9722 17.9335 90.5626 16.9013 90.5626 15.6562C90.5626 14.4221 90.9667 13.3954 91.7749 12.5763C92.5831 11.7462 93.6207 11.3312 94.8877 11.3312C96.0891 11.3312 97.0775 11.7462 97.853 12.5763C98.6393 13.4063 99.0325 14.433 99.0325 15.6562C99.0325 15.9293 99.0052 16.2187 98.9506 16.5245H92.7743ZM92.7415 14.8862H96.9191C96.799 14.3292 96.5478 13.9142 96.1655 13.6411C95.7942 13.3681 95.3682 13.2316 94.8877 13.2316C94.3197 13.2316 93.8501 13.379 93.4787 13.6739C93.1074 13.9579 92.8616 14.362 92.7415 14.8862ZM102.621 12.9694C102.818 12.4452 103.14 12.052 103.588 11.7899C104.047 11.5277 104.554 11.3967 105.111 11.3967V13.7558C104.467 13.6794 103.888 13.8104 103.375 14.149C102.872 14.4876 102.621 15.0501 102.621 15.8364V19.752H100.508V11.5605H102.621V12.9694Z" fill="#023E8A"/>
</svg>
